<svg xmlns="http://www.w3.org/2000/svg" viewBox="0 0 1240 660" width="1240" height="660"><rect width="1240" height="660" fill="#F4F5F7"/><svg x="20" y="20" width="590" height="590" viewBox="0 0 256 256"><defs><clipPath id="exa2"><circle cx="112.30" cy="159.39" r="29.46"/></clipPath><clipPath id="exa3"><circle cx="143.70" cy="190.78" r="29.46"/></clipPath><mask id="ema" maskUnits="userSpaceOnUse" x="0" y="0" width="256" height="256"><rect width="256" height="256" fill="#fff"/><path d="M112.30 159.39L143.70 190.78L175.09 159.39L128.00 112.30L175.09 65.22L112.30 65.22" clip-path="url(#exa2)" fill="none" stroke="#000" stroke-width="17.33" stroke-linecap="square" stroke-linejoin="miter" stroke-miterlimit="10"/><path d="M112.30 159.39L143.70 190.78L175.09 159.39L128.00 112.30L175.09 65.22L112.30 65.22" clip-path="url(#exa3)" fill="none" stroke="#000" stroke-width="17.33" stroke-linecap="square" stroke-linejoin="miter" stroke-miterlimit="10"/></mask><clipPath id="exb0"><circle cx="143.70" cy="96.61" r="29.46"/></clipPath><clipPath id="exb1"><circle cx="112.30" cy="65.22" r="29.46"/></clipPath><mask id="emb" maskUnits="userSpaceOnUse" x="0" y="0" width="256" height="256"><rect width="256" height="256" fill="#fff"/><path d="M143.70 96.61L112.30 65.22L80.91 96.61L128.00 143.70L80.91 190.78L143.70 190.78" clip-path="url(#exb0)" fill="none" stroke="#000" stroke-width="17.33" stroke-linecap="square" stroke-linejoin="miter" stroke-miterlimit="10"/><path d="M143.70 96.61L112.30 65.22L80.91 96.61L128.00 143.70L80.91 190.78L143.70 190.78" clip-path="url(#exb1)" fill="none" stroke="#000" stroke-width="17.33" stroke-linecap="square" stroke-linejoin="miter" stroke-miterlimit="10"/></mask></defs><rect width="256" height="256" fill="#002FA7"/><path d="M112.30 159.39L143.70 190.78L175.09 159.39L128.00 112.30L175.09 65.22L112.30 65.22" mask="url(#emb)" fill="none" stroke="#85A7FF" stroke-width="7.53" stroke-linecap="square" stroke-linejoin="miter" stroke-miterlimit="10"/><path d="M143.70 96.61L112.30 65.22L80.91 96.61L128.00 143.70L80.91 190.78L143.70 190.78" mask="url(#ema)" fill="none" stroke="#F4F5F7" stroke-width="7.53" stroke-linecap="square" stroke-linejoin="miter" stroke-miterlimit="10"/></svg><svg x="630" y="20" width="590" height="590" viewBox="0 0 256 256"><defs><clipPath id="cxa2"><circle cx="112.30" cy="159.39" r="29.46"/></clipPath><clipPath id="cxa3"><circle cx="143.70" cy="190.78" r="29.46"/></clipPath><mask id="cma" maskUnits="userSpaceOnUse" x="0" y="0" width="256" height="256"><rect width="256" height="256" fill="#fff"/><path d="M112.30 159.39L143.70 190.78L175.09 159.39L128.00 112.30L175.09 65.22L112.30 65.22" clip-path="url(#cxa2)" fill="none" stroke="#000" stroke-width="17.86" stroke-linecap="square" stroke-linejoin="miter" stroke-miterlimit="10"/><path d="M112.30 159.39L143.70 190.78L175.09 159.39L128.00 112.30L175.09 65.22L112.30 65.22" clip-path="url(#cxa3)" fill="none" stroke="#000" stroke-width="17.86" stroke-linecap="square" stroke-linejoin="miter" stroke-miterlimit="10"/></mask><clipPath id="cxb0"><circle cx="143.70" cy="96.61" r="29.46"/></clipPath><clipPath id="cxb1"><circle cx="112.30" cy="65.22" r="29.46"/></clipPath><mask id="cmb" maskUnits="userSpaceOnUse" x="0" y="0" width="256" height="256"><rect width="256" height="256" fill="#fff"/><path d="M143.70 96.61L112.30 65.22L80.91 96.61L128.00 143.70L80.91 190.78L143.70 190.78" clip-path="url(#cxb0)" fill="none" stroke="#000" stroke-width="17.33" stroke-linecap="square" stroke-linejoin="miter" stroke-miterlimit="10"/><path d="M143.70 96.61L112.30 65.22L80.91 96.61L128.00 143.70L80.91 190.78L143.70 190.78" clip-path="url(#cxb1)" fill="none" stroke="#000" stroke-width="17.33" stroke-linecap="square" stroke-linejoin="miter" stroke-miterlimit="10"/></mask></defs><rect width="256" height="256" fill="#002FA7"/><path d="M112.30 159.39L143.70 190.78L175.09 159.39L128.00 112.30L175.09 65.22L112.30 65.22" mask="url(#cmb)" fill="none" stroke="#85A7FF" stroke-width="8.06" stroke-linecap="square" stroke-linejoin="miter" stroke-miterlimit="10"/><path d="M143.70 96.61L112.30 65.22L80.91 96.61L128.00 143.70L80.91 190.78L143.70 190.78" mask="url(#cma)" fill="none" stroke="#F4F5F7" stroke-width="7.53" stroke-linecap="square" stroke-linejoin="miter" stroke-miterlimit="10"/></svg><text x="315" y="645" font-family="Helvetica Neue, Arial" font-size="22" fill="#4A5060" text-anchor="middle">pesos iguais</text><text x="925" y="645" font-family="Helvetica Neue, Arial" font-size="22" fill="#4A5060" text-anchor="middle">cópia azul +7%</text></svg>
