<svg xmlns="http://www.w3.org/2000/svg" viewBox="0 0 3840 2160" width="3840" height="2160"><rect width="3840" height="2160" fill="#002FA7"/><defs><radialGradient id="fade0" cx="1920.0" cy="1728.0" r="1382" gradientTransform="translate(1920.0 1728.0) scale(1 1.172) translate(-1920.0 -1728.0)" gradientUnits="userSpaceOnUse"><stop offset="0.45" stop-color="#000"/><stop offset="1" stop-color="#000" stop-opacity="0"/></radialGradient><radialGradient id="fade1" cx="606.9" cy="253.2" r="764" gradientTransform="translate(606.9 253.2) scale(1 0.490) translate(-606.9 -253.2)" gradientUnits="userSpaceOnUse"><stop offset="0.45" stop-color="#000"/><stop offset="1" stop-color="#000" stop-opacity="0"/></radialGradient><mask id="lat"><rect width="3840" height="2160" fill="#fff"/><rect width="3840" height="2160" fill="url(#fade0)"/><rect width="3840" height="2160" fill="url(#fade1)"/></mask></defs><path d="M-7997.4 -1946.4L-3677.4 2373.6M-7997.4 2373.6L-3677.4 -1946.4M-7918.1 -1946.4L-3598.1 2373.6M-7918.1 2373.6L-3598.1 -1946.4M-7838.7 -1946.4L-3518.7 2373.6M-7838.7 2373.6L-3518.7 -1946.4M-7759.4 -1946.4L-3439.4 2373.6M-7759.4 2373.6L-3439.4 -1946.4M-7680.0 -1946.4L-3360.0 2373.6M-7680.0 2373.6L-3360.0 -1946.4M-7600.7 -1946.4L-3280.7 2373.6M-7600.7 2373.6L-3280.7 -1946.4M-7521.3 -1946.4L-3201.3 2373.6M-7521.3 2373.6L-3201.3 -1946.4M-7441.9 -1946.4L-3121.9 2373.6M-7441.9 2373.6L-3121.9 -1946.4M-7362.6 -1946.4L-3042.6 2373.6M-7362.6 2373.6L-3042.6 -1946.4M-7283.2 -1946.4L-2963.2 2373.6M-7283.2 2373.6L-2963.2 -1946.4M-7203.9 -1946.4L-2883.9 2373.6M-7203.9 2373.6L-2883.9 -1946.4M-7124.5 -1946.4L-2804.5 2373.6M-7124.5 2373.6L-2804.5 -1946.4M-7045.2 -1946.4L-2725.2 2373.6M-7045.2 2373.6L-2725.2 -1946.4M-6965.8 -1946.4L-2645.8 2373.6M-6965.8 2373.6L-2645.8 -1946.4M-6886.4 -1946.4L-2566.4 2373.6M-6886.4 2373.6L-2566.4 -1946.4M-6807.1 -1946.4L-2487.1 2373.6M-6807.1 2373.6L-2487.1 -1946.4M-6727.7 -1946.4L-2407.7 2373.6M-6727.7 2373.6L-2407.7 -1946.4M-6648.4 -1946.4L-2328.4 2373.6M-6648.4 2373.6L-2328.4 -1946.4M-6569.0 -1946.4L-2249.0 2373.6M-6569.0 2373.6L-2249.0 -1946.4M-6489.6 -1946.4L-2169.6 2373.6M-6489.6 2373.6L-2169.6 -1946.4M-6410.3 -1946.4L-2090.3 2373.6M-6410.3 2373.6L-2090.3 -1946.4M-6330.9 -1946.4L-2010.9 2373.6M-6330.9 2373.6L-2010.9 -1946.4M-6251.6 -1946.4L-1931.6 2373.6M-6251.6 2373.6L-1931.6 -1946.4M-6172.2 -1946.4L-1852.2 2373.6M-6172.2 2373.6L-1852.2 -1946.4M-6092.9 -1946.4L-1772.9 2373.6M-6092.9 2373.6L-1772.9 -1946.4M-6013.5 -1946.4L-1693.5 2373.6M-6013.5 2373.6L-1693.5 -1946.4M-5934.1 -1946.4L-1614.1 2373.6M-5934.1 2373.6L-1614.1 -1946.4M-5854.8 -1946.4L-1534.8 2373.6M-5854.8 2373.6L-1534.8 -1946.4M-5775.4 -1946.4L-1455.4 2373.6M-5775.4 2373.6L-1455.4 -1946.4M-5696.1 -1946.4L-1376.1 2373.6M-5696.1 2373.6L-1376.1 -1946.4M-5616.7 -1946.4L-1296.7 2373.6M-5616.7 2373.6L-1296.7 -1946.4M-5537.4 -1946.4L-1217.4 2373.6M-5537.4 2373.6L-1217.4 -1946.4M-5458.0 -1946.4L-1138.0 2373.6M-5458.0 2373.6L-1138.0 -1946.4M-5378.6 -1946.4L-1058.6 2373.6M-5378.6 2373.6L-1058.6 -1946.4M-5299.3 -1946.4L-979.3 2373.6M-5299.3 2373.6L-979.3 -1946.4M-5219.9 -1946.4L-899.9 2373.6M-5219.9 2373.6L-899.9 -1946.4M-5140.6 -1946.4L-820.6 2373.6M-5140.6 2373.6L-820.6 -1946.4M-5061.2 -1946.4L-741.2 2373.6M-5061.2 2373.6L-741.2 -1946.4M-4981.9 -1946.4L-661.9 2373.6M-4981.9 2373.6L-661.9 -1946.4M-4902.5 -1946.4L-582.5 2373.6M-4902.5 2373.6L-582.5 -1946.4M-4823.1 -1946.4L-503.1 2373.6M-4823.1 2373.6L-503.1 -1946.4M-4743.8 -1946.4L-423.8 2373.6M-4743.8 2373.6L-423.8 -1946.4M-4664.4 -1946.4L-344.4 2373.6M-4664.4 2373.6L-344.4 -1946.4M-4585.1 -1946.4L-265.1 2373.6M-4585.1 2373.6L-265.1 -1946.4M-4505.7 -1946.4L-185.7 2373.6M-4505.7 2373.6L-185.7 -1946.4M-4426.3 -1946.4L-106.3 2373.6M-4426.3 2373.6L-106.3 -1946.4M-4347.0 -1946.4L-27.0 2373.6M-4347.0 2373.6L-27.0 -1946.4M-4267.6 -1946.4L52.4 2373.6M-4267.6 2373.6L52.4 -1946.4M-4188.3 -1946.4L131.7 2373.6M-4188.3 2373.6L131.7 -1946.4M-4108.9 -1946.4L211.1 2373.6M-4108.9 2373.6L211.1 -1946.4M-4029.6 -1946.4L290.4 2373.6M-4029.6 2373.6L290.4 -1946.4M-3950.2 -1946.4L369.8 2373.6M-3950.2 2373.6L369.8 -1946.4M-3870.8 -1946.4L449.2 2373.6M-3870.8 2373.6L449.2 -1946.4M-3791.5 -1946.4L528.5 2373.6M-3791.5 2373.6L528.5 -1946.4M-3712.1 -1946.4L607.9 2373.6M-3712.1 2373.6L607.9 -1946.4M-3632.8 -1946.4L687.2 2373.6M-3632.8 2373.6L687.2 -1946.4M-3553.4 -1946.4L766.6 2373.6M-3553.4 2373.6L766.6 -1946.4M-3474.1 -1946.4L845.9 2373.6M-3474.1 2373.6L845.9 -1946.4M-3394.7 -1946.4L925.3 2373.6M-3394.7 2373.6L925.3 -1946.4M-3315.3 -1946.4L1004.7 2373.6M-3315.3 2373.6L1004.7 -1946.4M-3236.0 -1946.4L1084.0 2373.6M-3236.0 2373.6L1084.0 -1946.4M-3156.6 -1946.4L1163.4 2373.6M-3156.6 2373.6L1163.4 -1946.4M-3077.3 -1946.4L1242.7 2373.6M-3077.3 2373.6L1242.7 -1946.4M-2997.9 -1946.4L1322.1 2373.6M-2997.9 2373.6L1322.1 -1946.4M-2918.6 -1946.4L1401.4 2373.6M-2918.6 2373.6L1401.4 -1946.4M-2839.2 -1946.4L1480.8 2373.6M-2839.2 2373.6L1480.8 -1946.4M-2759.8 -1946.4L1560.2 2373.6M-2759.8 2373.6L1560.2 -1946.4M-2680.5 -1946.4L1639.5 2373.6M-2680.5 2373.6L1639.5 -1946.4M-2601.1 -1946.4L1718.9 2373.6M-2601.1 2373.6L1718.9 -1946.4M-2521.8 -1946.4L1798.2 2373.6M-2521.8 2373.6L1798.2 -1946.4M-2442.4 -1946.4L1877.6 2373.6M-2442.4 2373.6L1877.6 -1946.4M-2363.0 -1946.4L1957.0 2373.6M-2363.0 2373.6L1957.0 -1946.4M-2283.7 -1946.4L2036.3 2373.6M-2283.7 2373.6L2036.3 -1946.4M-2204.3 -1946.4L2115.7 2373.6M-2204.3 2373.6L2115.7 -1946.4M-2125.0 -1946.4L2195.0 2373.6M-2125.0 2373.6L2195.0 -1946.4M-2045.6 -1946.4L2274.4 2373.6M-2045.6 2373.6L2274.4 -1946.4M-1966.3 -1946.4L2353.7 2373.6M-1966.3 2373.6L2353.7 -1946.4M-1886.9 -1946.4L2433.1 2373.6M-1886.9 2373.6L2433.1 -1946.4M-1807.5 -1946.4L2512.5 2373.6M-1807.5 2373.6L2512.5 -1946.4M-1728.2 -1946.4L2591.8 2373.6M-1728.2 2373.6L2591.8 -1946.4M-1648.8 -1946.4L2671.2 2373.6M-1648.8 2373.6L2671.2 -1946.4M-1569.5 -1946.4L2750.5 2373.6M-1569.5 2373.6L2750.5 -1946.4M-1490.1 -1946.4L2829.9 2373.6M-1490.1 2373.6L2829.9 -1946.4M-1410.8 -1946.4L2909.2 2373.6M-1410.8 2373.6L2909.2 -1946.4M-1331.4 -1946.4L2988.6 2373.6M-1331.4 2373.6L2988.6 -1946.4M-1252.0 -1946.4L3068.0 2373.6M-1252.0 2373.6L3068.0 -1946.4M-1172.7 -1946.4L3147.3 2373.6M-1172.7 2373.6L3147.3 -1946.4M-1093.3 -1946.4L3226.7 2373.6M-1093.3 2373.6L3226.7 -1946.4M-1014.0 -1946.4L3306.0 2373.6M-1014.0 2373.6L3306.0 -1946.4M-934.6 -1946.4L3385.4 2373.6M-934.6 2373.6L3385.4 -1946.4M-855.3 -1946.4L3464.7 2373.6M-855.3 2373.6L3464.7 -1946.4M-775.9 -1946.4L3544.1 2373.6M-775.9 2373.6L3544.1 -1946.4M-696.5 -1946.4L3623.5 2373.6M-696.5 2373.6L3623.5 -1946.4M-617.2 -1946.4L3702.8 2373.6M-617.2 2373.6L3702.8 -1946.4M-537.8 -1946.4L3782.2 2373.6M-537.8 2373.6L3782.2 -1946.4M-458.5 -1946.4L3861.5 2373.6M-458.5 2373.6L3861.5 -1946.4M-379.1 -1946.4L3940.9 2373.6M-379.1 2373.6L3940.9 -1946.4M-299.7 -1946.4L4020.3 2373.6M-299.7 2373.6L4020.3 -1946.4M-220.4 -1946.4L4099.6 2373.6M-220.4 2373.6L4099.6 -1946.4M-141.0 -1946.4L4179.0 2373.6M-141.0 2373.6L4179.0 -1946.4M-61.7 -1946.4L4258.3 2373.6M-61.7 2373.6L4258.3 -1946.4M17.7 -1946.4L4337.7 2373.6M17.7 2373.6L4337.7 -1946.4M97.0 -1946.4L4417.0 2373.6M97.0 2373.6L4417.0 -1946.4M176.4 -1946.4L4496.4 2373.6M176.4 2373.6L4496.4 -1946.4M255.8 -1946.4L4575.8 2373.6M255.8 2373.6L4575.8 -1946.4M335.1 -1946.4L4655.1 2373.6M335.1 2373.6L4655.1 -1946.4M414.5 -1946.4L4734.5 2373.6M414.5 2373.6L4734.5 -1946.4M493.8 -1946.4L4813.8 2373.6M493.8 2373.6L4813.8 -1946.4M573.2 -1946.4L4893.2 2373.6M573.2 2373.6L4893.2 -1946.4M652.5 -1946.4L4972.5 2373.6M652.5 2373.6L4972.5 -1946.4M731.9 -1946.4L5051.9 2373.6M731.9 2373.6L5051.9 -1946.4M811.3 -1946.4L5131.3 2373.6M811.3 2373.6L5131.3 -1946.4M890.6 -1946.4L5210.6 2373.6M890.6 2373.6L5210.6 -1946.4M970.0 -1946.4L5290.0 2373.6M970.0 2373.6L5290.0 -1946.4M1049.3 -1946.4L5369.3 2373.6M1049.3 2373.6L5369.3 -1946.4M1128.7 -1946.4L5448.7 2373.6M1128.7 2373.6L5448.7 -1946.4M1208.0 -1946.4L5528.0 2373.6M1208.0 2373.6L5528.0 -1946.4M1287.4 -1946.4L5607.4 2373.6M1287.4 2373.6L5607.4 -1946.4M1366.8 -1946.4L5686.8 2373.6M1366.8 2373.6L5686.8 -1946.4M1446.1 -1946.4L5766.1 2373.6M1446.1 2373.6L5766.1 -1946.4M1525.5 -1946.4L5845.5 2373.6M1525.5 2373.6L5845.5 -1946.4M1604.8 -1946.4L5924.8 2373.6M1604.8 2373.6L5924.8 -1946.4M1684.2 -1946.4L6004.2 2373.6M1684.2 2373.6L6004.2 -1946.4M1763.6 -1946.4L6083.6 2373.6M1763.6 2373.6L6083.6 -1946.4M1842.9 -1946.4L6162.9 2373.6M1842.9 2373.6L6162.9 -1946.4M1922.3 -1946.4L6242.3 2373.6M1922.3 2373.6L6242.3 -1946.4M2001.6 -1946.4L6321.6 2373.6M2001.6 2373.6L6321.6 -1946.4M2081.0 -1946.4L6401.0 2373.6M2081.0 2373.6L6401.0 -1946.4M2160.3 -1946.4L6480.3 2373.6M2160.3 2373.6L6480.3 -1946.4M2239.7 -1946.4L6559.7 2373.6M2239.7 2373.6L6559.7 -1946.4M2319.1 -1946.4L6639.1 2373.6M2319.1 2373.6L6639.1 -1946.4M2398.4 -1946.4L6718.4 2373.6M2398.4 2373.6L6718.4 -1946.4M2477.8 -1946.4L6797.8 2373.6M2477.8 2373.6L6797.8 -1946.4M2557.1 -1946.4L6877.1 2373.6M2557.1 2373.6L6877.1 -1946.4M2636.5 -1946.4L6956.5 2373.6M2636.5 2373.6L6956.5 -1946.4M2715.8 -1946.4L7035.8 2373.6M2715.8 2373.6L7035.8 -1946.4M2795.2 -1946.4L7115.2 2373.6M2795.2 2373.6L7115.2 -1946.4M2874.6 -1946.4L7194.6 2373.6M2874.6 2373.6L7194.6 -1946.4M2953.9 -1946.4L7273.9 2373.6M2953.9 2373.6L7273.9 -1946.4M3033.3 -1946.4L7353.3 2373.6M3033.3 2373.6L7353.3 -1946.4M3112.6 -1946.4L7432.6 2373.6M3112.6 2373.6L7432.6 -1946.4M3192.0 -1946.4L7512.0 2373.6M3192.0 2373.6L7512.0 -1946.4M3271.3 -1946.4L7591.3 2373.6M3271.3 2373.6L7591.3 -1946.4M3350.7 -1946.4L7670.7 2373.6M3350.7 2373.6L7670.7 -1946.4M3430.1 -1946.4L7750.1 2373.6M3430.1 2373.6L7750.1 -1946.4M3509.4 -1946.4L7829.4 2373.6M3509.4 2373.6L7829.4 -1946.4M3588.8 -1946.4L7908.8 2373.6M3588.8 2373.6L7908.8 -1946.4M3668.1 -1946.4L7988.1 2373.6M3668.1 2373.6L7988.1 -1946.4M3747.5 -1946.4L8067.5 2373.6M3747.5 2373.6L8067.5 -1946.4M3826.9 -1946.4L8146.9 2373.6M3826.9 2373.6L8146.9 -1946.4M3906.2 -1946.4L8226.2 2373.6M3906.2 2373.6L8226.2 -1946.4M3985.6 -1946.4L8305.6 2373.6M3985.6 2373.6L8305.6 -1946.4M4064.9 -1946.4L8384.9 2373.6M4064.9 2373.6L8384.9 -1946.4" mask="url(#lat)" fill="none" stroke="#85A7FF" stroke-opacity="0.22" stroke-width="3.57"/><svg xmlns="http://www.w3.org/2000/svg" viewBox="0 0 1019.3 312.1" x="97.2" y="97.2" width="1019.3" height="312.1"><g transform="translate(64.3 64.3)"><defs><clipPath id="xa2"><circle cx="71.96" cy="131.48" r="37.23"/></clipPath><clipPath id="xa3"><circle cx="111.64" cy="171.16" r="37.23"/></clipPath><mask id="ma" maskUnits="userSpaceOnUse" x="0" y="0" width="183.60000000000002" height="183.60000000000002"><rect width="183.60000000000002" height="183.60000000000002" fill="#fff"/><path d="M71.96 131.48L111.64 171.16L151.32 131.48L91.80 71.96L151.32 12.44L71.96 12.44" clip-path="url(#xa2)" fill="none" stroke="#000" stroke-width="21.90" stroke-linecap="square" stroke-linejoin="miter" stroke-miterlimit="10"/><path d="M71.96 131.48L111.64 171.16L151.32 131.48L91.80 71.96L151.32 12.44L71.96 12.44" clip-path="url(#xa3)" fill="none" stroke="#000" stroke-width="21.90" stroke-linecap="square" stroke-linejoin="miter" stroke-miterlimit="10"/></mask><clipPath id="xb0"><circle cx="111.64" cy="52.12" r="37.23"/></clipPath><clipPath id="xb1"><circle cx="71.96" cy="12.44" r="37.23"/></clipPath><mask id="mb" maskUnits="userSpaceOnUse" x="0" y="0" width="183.60000000000002" height="183.60000000000002"><rect width="183.60000000000002" height="183.60000000000002" fill="#fff"/><path d="M111.64 52.12L71.96 12.44L32.28 52.12L91.80 111.64L32.28 171.16L111.64 171.16" clip-path="url(#xb0)" fill="none" stroke="#000" stroke-width="21.90" stroke-linecap="square" stroke-linejoin="miter" stroke-miterlimit="10"/><path d="M111.64 52.12L71.96 12.44L32.28 52.12L91.80 111.64L32.28 171.16L111.64 171.16" clip-path="url(#xb1)" fill="none" stroke="#000" stroke-width="21.90" stroke-linecap="square" stroke-linejoin="miter" stroke-miterlimit="10"/></mask></defs><path d="M71.96 131.48L111.64 171.16L151.32 131.48L91.80 71.96L151.32 12.44L71.96 12.44" mask="url(#mb)" fill="none" stroke="#85A7FF" stroke-width="9.52" stroke-linecap="square" stroke-linejoin="miter" stroke-miterlimit="10"/><path d="M111.64 52.12L71.96 12.44L32.28 52.12L91.80 111.64L32.28 171.16L111.64 171.16" mask="url(#ma)" fill="none" stroke="#F4F5F7" stroke-width="9.52" stroke-linecap="square" stroke-linejoin="miter" stroke-miterlimit="10"/></g><path transform="translate(302.9 183.7)" d="M8.685331576171874 0.0V-56.06228779101563H20.171163796875V-49.51697558203125H21.981109271484375Q23.54060211328125 -52.44245242382813 27.075077375976562 -54.74753652832031Q30.609552638671875 -57.0526206328125 36.66538168945313 -57.0526206328125Q42.93750821484375 -57.0526206328125 46.759405108886725 -54.460114896972655Q50.58130200292969 -51.86760916113281 52.47660758203125 -47.91196105664063H54.28655305664063Q56.22169705664063 -51.79361558203125 59.949681161132816 -54.42311810742187Q63.677665265625 -57.0526206328125 70.4847966328125 -57.0526206328125Q75.88042231640625 -57.0526206328125 80.12920310595703 -54.79305821191406Q84.37798389550781 -52.533495791015625 86.87944626416015 -48.15664705371094Q89.3809086328125 -43.77979831640625 89.3809086328125 -37.388100946289065V0.0H77.66741241210937V-36.483128208984375Q77.66741241210937 -41.58846283886719 74.85863699267577 -44.360241468750004Q72.04986157324218 -47.132020098632815 66.96731557617187 -47.132020098632815Q61.47496326269531 -47.132020098632815 58.182415738769535 -43.60325588964844Q54.88986821484375 -40.07449168066406 54.88986821484375 -33.432452841796874V0.0H43.176371994140624V-36.483128208984375Q43.176371994140624 -41.58846283886719 40.36759657470703 -44.360241468750004Q37.558821155273435 -47.132020098632815 32.47627515820312 -47.132020098632815Q26.983922844726564 -47.132020098632815 23.69137532080078 -43.60325588964844Q20.398827796875 -40.07449168066406 20.398827796875 -33.432452841796874V0.0ZM126.763270734375 0.990332841796875Q120.40004525976562 0.990332841796875 115.40851483886718 -1.8469422641601565Q110.41698441796875 -4.684217370117188 107.58542036572265 -9.934725317871093Q104.75385631347656 -15.185233265625 104.75385631347656 -22.368015791015626V-56.06228779101563H116.46735253417968V-23.267305265625Q116.46735253417968 -15.976429584960938 120.09571279541015 -12.490345428222657Q123.72407305664062 -9.004261271484376 130.16691979101563 -9.004261271484376Q137.44642894628907 -9.004261271484376 141.80614452246095 -13.825015901367188Q146.1658600986328 -18.64577053125 146.1658600986328 -27.735169579101562V-56.06228779101563H157.87935631933593V0.0H146.3935240986328V-8.395040522460938H144.58357862402343Q142.9785640986328 -4.991502629882812 138.9034007314453 -2.0005848940429685Q134.8282373642578 0.990332841796875 126.763270734375 0.990332841796875ZM192.5524834716797 1.593648Q186.59906431347656 1.593648 181.83803952392577 -0.47240557910156245Q177.07701473437498 -2.538459158203125 174.3080499448242 -6.519737526855469Q171.53908515527343 -10.501015895507813 171.53908515527343 -16.1869326328125Q171.53908515527343 -21.912687791015625 174.3080499448242 -25.740295738769532Q177.07701473437498 -29.567903686523437 181.9291106821289 -31.50020605517578Q186.7812066298828 -33.432508423828125 192.91676810449218 -33.432508423828125H210.07113378222655V-37.05802705371094Q210.07113378222655 -41.99826915527344 207.08876873144533 -44.97779257470704Q204.10640368066407 -47.95731599414063 197.96521452539062 -47.95731599414063Q191.93785737011717 -47.95731599414063 188.74206426708983 -45.11154378515626Q185.5462711640625 -42.26577157617188 184.51041663867187 -37.63855357910156L173.61653305078124 -41.201556319335936Q174.98251705078124 -45.72636442382812 177.97914584033202 -49.431587686523436Q180.9757746298828 -53.13681094921875 185.98154099853514 -55.39637337011719Q190.9873073671875 -57.65593579101563 198.11320168359376 -57.65593579101563Q209.0297071582031 -57.65593579101563 215.25918142236327 -52.118006211914064Q221.48865568652343 -46.5800766328125 221.48865568652343 -36.272569579101564V-13.18189011328125Q221.48865568652343 -9.76693011328125 224.67595168652343 -9.76693011328125H229.5081006328125V0.0H220.74298105078125Q216.77022757617186 0.0 214.2772901015625 -2.068895210449219Q211.78435262695314 -4.137790420898438 211.78435262695314 -7.6324272626953125V-7.985289788085938H209.98009041503906Q209.16621662695312 -6.220921579101563 207.31361889111326 -3.9414399477539064Q205.46102115527344 -1.6619583164062501 201.92654589257813 -0.03415515820312509Q198.39207062988282 1.593648 192.5524834716797 1.593648ZM194.33969589550782 -8.104971796875Q201.32891399707032 -8.104971796875 205.70002388964843 -12.140268952148439Q210.07113378222655 -16.175566107421876 210.07113378222655 -23.187517259765624V-24.4055141015625H193.62254873730467Q188.96117558203125 -24.4055141015625 186.1068784790039 -22.399245944824216Q183.25258137597655 -20.392977788085936 183.25258137597655 -16.52274537011719Q183.25258137597655 -12.652512952148438 186.2207104790039 -10.37874237451172Q189.18883958203125 -8.104971796875 194.33969589550782 -8.104971796875ZM240.9026115761719 0.0V-56.06228779101563H252.388443796875V-47.66724726855469H254.1983892714844Q255.80340379687502 -51.14477874023438 259.87856716406253 -54.09869968652344Q263.95373053125 -57.0526206328125 272.0186971611328 -57.0526206328125Q278.42176105664066 -57.0526206328125 283.39337226708983 -54.21534552685547Q288.36498347753906 -51.37807042089844 291.19654752978516 -46.16455926269531Q294.0281115820313 -40.95104810449219 294.0281115820313 -33.694272V0.0H282.31461536132815V-32.79498252539062Q282.31461536132815 -40.12569662695313 278.6862551000977 -43.59186157324219Q275.0578948388672 -47.05802651953125 268.6150481044922 -47.05802651953125Q261.33553894921874 -47.05802651953125 256.97582337304686 -42.23727188964844Q252.616107796875 -37.41651725976563 252.616107796875 -28.327118211914062V0.0ZM310.9092915761719 0.0V-79.6824H322.62278779687506V0.0ZM357.3812194716797 1.593648Q351.4278003134766 1.593648 346.6667755239258 -0.47240557910156245Q341.90575073437503 -2.538459158203125 339.1367859448243 -6.519737526855469Q336.3678211552735 -10.501015895507813 336.3678211552735 -16.1869326328125Q336.3678211552735 -21.912687791015625 339.1367859448243 -25.740295738769532Q341.90575073437503 -29.567903686523437 346.75784668212896 -31.50020605517578Q351.6099426298828 -33.432508423828125 357.7455041044922 -33.432508423828125H374.8998697822266V-37.05802705371094Q374.8998697822266 -41.99826915527344 371.9175047314453 -44.97779257470704Q368.93513968066407 -47.95731599414063 362.79395052539064 -47.95731599414063Q356.7665933701172 -47.95731599414063 353.5708002670899 -45.11154378515626Q350.37500716406254 -42.26577157617188 349.33915263867186 -37.63855357910156L338.4452690507813 -41.201556319335936Q339.81125305078126 -45.72636442382812 342.807881840332 -49.431587686523436Q345.8045106298828 -53.13681094921875 350.8102769985352 -55.39637337011719Q355.8160433671875 -57.65593579101563 362.9419376835938 -57.65593579101563Q373.85844315820316 -57.65593579101563 380.0879174223633 -52.118006211914064Q386.3173916865235 -46.5800766328125 386.3173916865235 -36.272569579101564V-13.18189011328125Q386.3173916865235 -9.76693011328125 389.5046876865234 -9.76693011328125H394.3368366328125V0.0H385.5717170507813Q381.5989635761719 0.0 379.1060261015625 -2.068895210449219Q376.61308862695313 -4.137790420898438 376.61308862695313 -7.6324272626953125V-7.985289788085938H374.8088264150391Q373.99495262695314 -6.220921579101563 372.1423548911133 -3.9414399477539064Q370.28975715527343 -1.6619583164062501 366.7552818925781 -0.03415515820312509Q363.2208066298828 1.593648 357.3812194716797 1.593648ZM359.1684318955078 -8.104971796875Q366.15764999707034 -8.104971796875 370.5287598896484 -12.140268952148439Q374.8998697822266 -16.175566107421876 374.8998697822266 -23.187517259765624V-24.4055141015625H358.4512847373047Q353.78991158203127 -24.4055141015625 350.9356144790039 -22.399245944824216Q348.0813173759766 -20.392977788085936 348.0813173759766 -16.52274537011719Q348.0813173759766 -12.652512952148438 351.0494464790039 -10.37874237451172Q354.01757558203127 -8.104971796875 359.1684318955078 -8.104971796875ZM405.73134757617186 0.0V-56.06228779101563H417.21717979687503V-49.48850368652344H419.0271252714844Q420.3987925341797 -53.02297894921875 423.38118537597654 -54.65646537011719Q426.36357821777347 -56.289951791015625 430.83144253125 -56.289951791015625H437.5418472685547V-45.771719361328124H430.4045864267578Q424.66178148046873 -45.771719361328124 421.05331263867185 -42.64989204638672Q417.44484379687503 -39.52806473144531 417.44484379687503 -32.97706925976563V0.0ZM470.8546736835937 0.0Q465.6752898925781 0.0 462.64163652246094 -3.0535725805664065Q459.60798315234376 -6.107145161132813 459.60798315234376 -11.31500084765625V-46.2156808359375H444.2179856835937V-56.06228779101563H459.60798315234376V-74.70789157617187H471.3214793730469V-56.06228779101563H488.15713768359376V-46.2156808359375H471.3214793730469V-13.261566955078125Q471.3214793730469 -9.846606955078125 474.58845221484376 -9.846606955078125H486.2334157910156V0.0ZM501.91938757617186 0.0V-56.06228779101563H513.632883796875V0.0ZM507.77613568652345 -63.700342734375Q504.3839087373047 -63.700342734375 502.0474833149414 -65.92577778808594Q499.71105789257814 -68.15121284179688 499.71105789257814 -71.69142694921875Q499.71105789257814 -75.27147947753906 502.0474833149414 -77.47699532080078Q504.3839087373047 -79.6825111640625 507.77613568652345 -79.6825111640625Q511.2821946357422 -79.6825111640625 513.5617040581054 -77.47699532080078Q515.8412134804687 -75.27147947753906 515.8412134804687 -71.69142694921875Q515.8412134804687 -68.15121284179688 513.5617040581054 -65.92577778808594Q511.2821946357422 -63.700342734375 507.77613568652345 -63.700342734375ZM531.0603795761718 0.0V-56.06228779101563H542.546211796875V-47.66724726855469H544.3561572714843Q545.961171796875 -51.14477874023438 550.0363351640624 -54.09869968652344Q554.1114985312499 -57.0526206328125 562.1764651611328 -57.0526206328125Q568.5795290566406 -57.0526206328125 573.5511402670897 -54.21534552685547Q578.522751477539 -51.37807042089844 581.3543155297851 -46.16455926269531Q584.1858795820312 -40.95104810449219 584.1858795820312 -33.694272V0.0H572.4723833613281V-32.79498252539062Q572.4723833613281 -40.12569662695313 568.8440231000976 -43.59186157324219Q565.2156628388672 -47.05802651953125 558.7728161044922 -47.05802651953125Q551.4933069492188 -47.05802651953125 547.1335913730469 -42.23727188964844Q542.773875796875 -37.41651725976563 542.773875796875 -28.327118211914062V0.0ZM623.9985521044922 1.593648Q613.3153938925782 1.593648 606.237890682129 -3.187296Q599.1603874716798 -7.96824 597.6407330507814 -17.604065997070315L608.5744550595704 -20.262096Q609.4111174804689 -15.560884423828126 611.6080528476564 -12.865941004394532Q613.8049882148438 -10.170997584960938 617.0320948447265 -9.024152690917969Q620.2592014746094 -7.877307796875 623.9985521044922 -7.877307796875Q629.6445748388672 -7.877307796875 632.652542362793 -10.000249584960937Q635.6605098867188 -12.123191373046875 635.6605098867188 -15.538095791015625Q635.6605098867188 -18.99283862988281 632.8062127836915 -20.59501152392578Q629.9519156806641 -22.19718441796875 624.4254082089844 -23.187517259765624L620.5210206328126 -23.876192522460936Q614.8407871582032 -24.93483568066406 610.1850416835938 -26.887057259765626Q605.5292962089844 -28.839278838867187 602.7489371030274 -32.248555576171874Q599.9685779970704 -35.65783231347656 599.9685779970704 -40.9567313671875Q599.9685779970704 -48.94207673730469 605.9362331030275 -53.299006264160155Q611.9038882089844 -57.65593579101563 621.6820736835938 -57.65593579101563Q631.1301296835939 -57.65593579101563 637.2116167895508 -53.42423258056641Q643.2931038955079 -49.192529370117185 645.0688942119141 -41.924386740234375L634.1806938867188 -38.782556841796875Q633.1903610449219 -43.90494125976563 629.8835775732423 -46.04496062695313Q626.5767941015625 -48.184979994140626 621.6820736835938 -48.184979994140626Q616.8271916865235 -48.184979994140626 614.1066457939454 -46.423453416503904Q611.3860999013673 -44.66192683886719 611.3860999013673 -41.400692841796875Q611.3860999013673 -38.031310107421874 614.0611241103517 -36.44337316113281Q616.736148319336 -34.85543621484375 621.3235278955078 -34.05292895214844L625.2279154716798 -33.36425368945313Q631.3634769462891 -32.305610531250004 636.3237216313478 -30.467220952148438Q641.2839663164063 -28.628831373046875 644.180999053711 -25.25655142529297Q647.0780317910157 -21.884271477539063 647.0780317910157 -16.20403800292969Q647.0780317910157 -7.683687791015625 640.8257966850587 -3.0450198955078127Q634.5735615791016 1.593648 623.9985521044922 1.593648Z" fill="#F4F5F7"/></svg>
</svg>
